<?xml version="1.0" standalone="no"?>
<!DOCTYPE svg PUBLIC "-//W3C//DTD SVG 20010904//EN"
 "http://www.w3.org/TR/2001/REC-SVG-20010904/DTD/svg10.dtd">
<svg version="1.0" xmlns="http://www.w3.org/2000/svg"
 width="512.000000pt" height="512.000000pt" viewBox="0 0 512.000000 512.000000"
 preserveAspectRatio="xMidYMid meet">

<g transform="translate(0.000000,512.000000) scale(0.100000,-0.100000)"
fill="#000000" stroke="none">
<path d="M0 2895 l0 -2225 890 0 890 0 0 -335 0 -335 1670 0 1670 0 0 1890 0
1890 -165 0 -165 0 0 -165 0 -165 -335 0 -335 0 0 335 0 335 165 0 165 0 2
-167 3 -168 165 0 165 0 0 165 0 165 -167 3 -168 2 0 165 0 165 -555 0 -555 0
0 335 0 335 -1670 0 -1670 0 0 -2225z m3005 1725 l0 -165 -612 -3 -613 -2 0
-1725 0 -1725 -723 2 -722 3 -3 1880 c-1 1034 0 1886 3 1893 3 10 276 12 1337
10 l1333 -3 0 -165z m775 -1000 l0 -500 503 -2 502 -3 0 -1390 0 -1390 -1335
0 -1335 0 -3 1880 c-1 1034 0 1886 3 1893 3 9 180 12 835 12 l830 0 0 -500z"/>
</g>
</svg>
